<svg width="16" height="16" viewBox="0 0 16 16" fill="none" xmlns="http://www.w3.org/2000/svg">
<g clip-path="url(#clip0_78_8304)">
<path fill-rule="evenodd" clip-rule="evenodd" d="M0.666016 8.00008C0.666016 3.94999 3.94926 0.666748 7.99935 0.666748C12.0494 0.666748 15.3327 3.94999 15.3327 8.00008C15.3327 12.0502 12.0494 15.3334 7.99935 15.3334C3.94926 15.3334 0.666016 12.0502 0.666016 8.00008Z" fill="#08AD36"/>
<path fill-rule="evenodd" clip-rule="evenodd" d="M11.5398 5.36206C11.8002 5.62241 11.8002 6.04452 11.5398 6.30487L7.40174 10.6382C7.14139 10.8986 6.71928 10.8986 6.45893 10.6382L4.45893 8.6382C4.19858 8.37785 4.19858 7.95574 4.45893 7.69539C4.71928 7.43505 5.14139 7.43505 5.40174 7.69539L6.93034 9.22399L10.597 5.36206C10.8574 5.10171 11.2795 5.10171 11.5398 5.36206Z" fill="white"/>
</g>
<defs>
<clipPath id="clip0_78_8304">
<rect width="16" height="16" fill="white"/>
</clipPath>
</defs>
</svg>
