<svg width="61" height="56" viewBox="0 0 61 56" fill="none" xmlns="http://www.w3.org/2000/svg">
<path d="M2.09989 55.9998C2.78608 55.9998 3.34235 55.4436 3.34235 54.7574C3.34235 54.0712 2.78608 53.5149 2.09989 53.5149C1.41369 53.5149 0.857422 54.0712 0.857422 54.7574C0.857422 55.4436 1.41369 55.9998 2.09989 55.9998Z" fill="#00ECFB"/>
<path d="M2.09989 45.262C2.78608 45.262 3.34235 44.7058 3.34235 44.0196C3.34235 43.3334 2.78608 42.7771 2.09989 42.7771C1.41369 42.7771 0.857422 43.3334 0.857422 44.0196C0.857422 44.7058 1.41369 45.262 2.09989 45.262Z" fill="#00ECFB"/>
<path d="M2.09989 34.5228C2.78608 34.5228 3.34235 33.9665 3.34235 33.2803C3.34235 32.5941 2.78608 32.0378 2.09989 32.0378C1.41369 32.0378 0.857422 32.5941 0.857422 33.2803C0.857422 33.9665 1.41369 34.5228 2.09989 34.5228Z" fill="#00ECFB"/>
<path d="M2.09989 23.8731C2.78608 23.8731 3.34235 23.3168 3.34235 22.6306C3.34235 21.9445 2.78608 21.3882 2.09989 21.3882C1.41369 21.3882 0.857422 21.9445 0.857422 22.6306C0.857422 23.3168 1.41369 23.8731 2.09989 23.8731Z" fill="#00ECFB"/>
<path d="M2.09989 13.1351C2.78608 13.1351 3.34235 12.5788 3.34235 11.8926C3.34235 11.2064 2.78608 10.6501 2.09989 10.6501C1.41369 10.6501 0.857422 11.2064 0.857422 11.8926C0.857422 12.5788 1.41369 13.1351 2.09989 13.1351Z" fill="#00ECFB"/>
<path d="M2.10184 2.48566C2.78803 2.48566 3.3443 1.92939 3.3443 1.2432C3.3443 0.557003 2.78803 0.000732422 2.10184 0.000732422C1.41565 0.000732422 0.859375 0.557003 0.859375 1.2432C0.859375 1.92939 1.41565 2.48566 2.10184 2.48566Z" fill="#00ECFB"/>
<path d="M59.6096 55.9991C60.2958 55.9991 60.8521 55.4428 60.8521 54.7566C60.8521 54.0704 60.2958 53.5142 59.6096 53.5142C58.9235 53.5142 58.3672 54.0704 58.3672 54.7566C58.3672 55.4428 58.9235 55.9991 59.6096 55.9991Z" fill="#00ECFB"/>
<path d="M59.6096 45.2613C60.2958 45.2613 60.8521 44.705 60.8521 44.0188C60.8521 43.3326 60.2958 42.7764 59.6096 42.7764C58.9235 42.7764 58.3672 43.3326 58.3672 44.0188C58.3672 44.705 58.9235 45.2613 59.6096 45.2613Z" fill="#00ECFB"/>
<path d="M59.6096 34.522C60.2958 34.522 60.8521 33.9658 60.8521 33.2796C60.8521 32.5934 60.2958 32.0371 59.6096 32.0371C58.9235 32.0371 58.3672 32.5934 58.3672 33.2796C58.3672 33.9658 58.9235 34.522 59.6096 34.522Z" fill="#00ECFB"/>
<path d="M59.6096 23.8724C60.2958 23.8724 60.8521 23.3161 60.8521 22.6299C60.8521 21.9437 60.2958 21.3875 59.6096 21.3875C58.9235 21.3875 58.3672 21.9437 58.3672 22.6299C58.3672 23.3161 58.9235 23.8724 59.6096 23.8724Z" fill="#00ECFB"/>
<path d="M59.6096 13.1343C60.2958 13.1343 60.8521 12.5781 60.8521 11.8919C60.8521 11.2057 60.2958 10.6494 59.6096 10.6494C58.9235 10.6494 58.3672 11.2057 58.3672 11.8919C58.3672 12.5781 58.9235 13.1343 59.6096 13.1343Z" fill="#00ECFB"/>
<path d="M59.6096 2.48493C60.2958 2.48493 60.8521 1.92866 60.8521 1.24246C60.8521 0.55627 60.2958 0 59.6096 0C58.9235 0 58.3672 0.55627 58.3672 1.24246C58.3672 1.92866 58.9235 2.48493 59.6096 2.48493Z" fill="#00ECFB"/>
<path d="M48.1604 55.9991C48.8466 55.9991 49.4029 55.4428 49.4029 54.7566C49.4029 54.0704 48.8466 53.5142 48.1604 53.5142C47.4742 53.5142 46.918 54.0704 46.918 54.7566C46.918 55.4428 47.4742 55.9991 48.1604 55.9991Z" fill="#00ECFB"/>
<path d="M48.1604 45.2613C48.8466 45.2613 49.4029 44.705 49.4029 44.0188C49.4029 43.3326 48.8466 42.7764 48.1604 42.7764C47.4742 42.7764 46.918 43.3326 46.918 44.0188C46.918 44.705 47.4742 45.2613 48.1604 45.2613Z" fill="#00ECFB"/>
<path d="M48.1604 34.522C48.8466 34.522 49.4029 33.9658 49.4029 33.2796C49.4029 32.5934 48.8466 32.0371 48.1604 32.0371C47.4742 32.0371 46.918 32.5934 46.918 33.2796C46.918 33.9658 47.4742 34.522 48.1604 34.522Z" fill="#00ECFB"/>
<path d="M48.1604 23.8724C48.8466 23.8724 49.4029 23.3161 49.4029 22.6299C49.4029 21.9437 48.8466 21.3875 48.1604 21.3875C47.4742 21.3875 46.918 21.9437 46.918 22.6299C46.918 23.3161 47.4742 23.8724 48.1604 23.8724Z" fill="#00ECFB"/>
<path d="M48.1604 13.1343C48.8466 13.1343 49.4029 12.5781 49.4029 11.8919C49.4029 11.2057 48.8466 10.6494 48.1604 10.6494C47.4742 10.6494 46.918 11.2057 46.918 11.8919C46.918 12.5781 47.4742 13.1343 48.1604 13.1343Z" fill="#00ECFB"/>
<path d="M48.1604 2.48493C48.8466 2.48493 49.4029 1.92866 49.4029 1.24246C49.4029 0.55627 48.8466 0 48.1604 0C47.4742 0 46.918 0.55627 46.918 1.24246C46.918 1.92866 47.4742 2.48493 48.1604 2.48493Z" fill="#00ECFB"/>
<path d="M36.6233 55.9991C37.3095 55.9991 37.8658 55.4428 37.8658 54.7566C37.8658 54.0704 37.3095 53.5142 36.6233 53.5142C35.9371 53.5142 35.3809 54.0704 35.3809 54.7566C35.3809 55.4428 35.9371 55.9991 36.6233 55.9991Z" fill="#00ECFB"/>
<path d="M36.6233 45.2613C37.3095 45.2613 37.8658 44.705 37.8658 44.0188C37.8658 43.3326 37.3095 42.7764 36.6233 42.7764C35.9371 42.7764 35.3809 43.3326 35.3809 44.0188C35.3809 44.705 35.9371 45.2613 36.6233 45.2613Z" fill="#00ECFB"/>
<path d="M36.6233 34.522C37.3095 34.522 37.8658 33.9658 37.8658 33.2796C37.8658 32.5934 37.3095 32.0371 36.6233 32.0371C35.9371 32.0371 35.3809 32.5934 35.3809 33.2796C35.3809 33.9658 35.9371 34.522 36.6233 34.522Z" fill="#00ECFB"/>
<path d="M36.6233 23.8724C37.3095 23.8724 37.8658 23.3161 37.8658 22.6299C37.8658 21.9437 37.3095 21.3875 36.6233 21.3875C35.9371 21.3875 35.3809 21.9437 35.3809 22.6299C35.3809 23.3161 35.9371 23.8724 36.6233 23.8724Z" fill="#00ECFB"/>
<path d="M36.6233 13.1343C37.3095 13.1343 37.8658 12.5781 37.8658 11.8919C37.8658 11.2057 37.3095 10.6494 36.6233 10.6494C35.9371 10.6494 35.3809 11.2057 35.3809 11.8919C35.3809 12.5781 35.9371 13.1343 36.6233 13.1343Z" fill="#00ECFB"/>
<path d="M36.6233 2.48493C37.3095 2.48493 37.8658 1.92866 37.8658 1.24246C37.8658 0.55627 37.3095 0 36.6233 0C35.9371 0 35.3809 0.55627 35.3809 1.24246C35.3809 1.92866 35.9371 2.48493 36.6233 2.48493Z" fill="#00ECFB"/>
<path d="M25.0862 55.9991C25.7724 55.9991 26.3287 55.4428 26.3287 54.7566C26.3287 54.0704 25.7724 53.5142 25.0862 53.5142C24.4 53.5142 23.8438 54.0704 23.8438 54.7566C23.8438 55.4428 24.4 55.9991 25.0862 55.9991Z" fill="#00ECFB"/>
<path d="M25.0862 45.2613C25.7724 45.2613 26.3287 44.705 26.3287 44.0188C26.3287 43.3326 25.7724 42.7764 25.0862 42.7764C24.4 42.7764 23.8438 43.3326 23.8438 44.0188C23.8438 44.705 24.4 45.2613 25.0862 45.2613Z" fill="#00ECFB"/>
<path d="M25.0862 34.522C25.7724 34.522 26.3287 33.9658 26.3287 33.2796C26.3287 32.5934 25.7724 32.0371 25.0862 32.0371C24.4 32.0371 23.8438 32.5934 23.8438 33.2796C23.8438 33.9658 24.4 34.522 25.0862 34.522Z" fill="#00ECFB"/>
<path d="M25.0862 23.8724C25.7724 23.8724 26.3287 23.3161 26.3287 22.6299C26.3287 21.9437 25.7724 21.3875 25.0862 21.3875C24.4 21.3875 23.8438 21.9437 23.8438 22.6299C23.8438 23.3161 24.4 23.8724 25.0862 23.8724Z" fill="#00ECFB"/>
<path d="M25.0862 13.1343C25.7724 13.1343 26.3287 12.5781 26.3287 11.8919C26.3287 11.2057 25.7724 10.6494 25.0862 10.6494C24.4 10.6494 23.8438 11.2057 23.8438 11.8919C23.8438 12.5781 24.4 13.1343 25.0862 13.1343Z" fill="#00ECFB"/>
<path d="M25.0862 2.48493C25.7724 2.48493 26.3287 1.92866 26.3287 1.24246C26.3287 0.55627 25.7724 0 25.0862 0C24.4 0 23.8438 0.55627 23.8438 1.24246C23.8438 1.92866 24.4 2.48493 25.0862 2.48493Z" fill="#00ECFB"/>
<path d="M13.5491 55.9991C14.2353 55.9991 14.7916 55.4428 14.7916 54.7566C14.7916 54.0704 14.2353 53.5142 13.5491 53.5142C12.8629 53.5142 12.3066 54.0704 12.3066 54.7566C12.3066 55.4428 12.8629 55.9991 13.5491 55.9991Z" fill="#00ECFB"/>
<path d="M13.5491 45.2613C14.2353 45.2613 14.7916 44.705 14.7916 44.0188C14.7916 43.3326 14.2353 42.7764 13.5491 42.7764C12.8629 42.7764 12.3066 43.3326 12.3066 44.0188C12.3066 44.705 12.8629 45.2613 13.5491 45.2613Z" fill="#00ECFB"/>
<path d="M13.5491 34.522C14.2353 34.522 14.7916 33.9658 14.7916 33.2796C14.7916 32.5934 14.2353 32.0371 13.5491 32.0371C12.8629 32.0371 12.3066 32.5934 12.3066 33.2796C12.3066 33.9658 12.8629 34.522 13.5491 34.522Z" fill="#00ECFB"/>
<path d="M13.5491 23.8724C14.2353 23.8724 14.7916 23.3161 14.7916 22.6299C14.7916 21.9437 14.2353 21.3875 13.5491 21.3875C12.8629 21.3875 12.3066 21.9437 12.3066 22.6299C12.3066 23.3161 12.8629 23.8724 13.5491 23.8724Z" fill="#00ECFB"/>
<path d="M13.5491 13.1343C14.2353 13.1343 14.7916 12.5781 14.7916 11.8919C14.7916 11.2057 14.2353 10.6494 13.5491 10.6494C12.8629 10.6494 12.3066 11.2057 12.3066 11.8919C12.3066 12.5781 12.8629 13.1343 13.5491 13.1343Z" fill="#00ECFB"/>
<path d="M13.5491 2.48493C14.2353 2.48493 14.7916 1.92866 14.7916 1.24246C14.7916 0.55627 14.2353 0 13.5491 0C12.8629 0 12.3066 0.55627 12.3066 1.24246C12.3066 1.92866 12.8629 2.48493 13.5491 2.48493Z" fill="#00ECFB"/>
</svg>
