<svg width="20" height="20" viewBox="0 0 20 20" fill="none" xmlns="http://www.w3.org/2000/svg">
<g clip-path="url(#clip0_943_18544)">
<path d="M0 0H20V20H0V0Z" fill="white"/>
<path d="M0 0H20V6H0V0Z" fill="black"/>
<path d="M0 14H20V20H0V14Z" fill="#006600"/>
<path d="M6.41797 15.9375L6.64297 16.0625L12.4805 5.9375C12.818 5.8625 13.0055 5.5375 13.193 5.2125C13.318 4.9875 13.818 4.125 14.0305 3C13.4374 3.52699 12.9349 4.14774 12.543 4.8375C12.3555 5.1625 12.168 5.4875 12.2555 5.825L6.41797 15.9375Z" fill="black" stroke="black" stroke-width="0.4"/>
<path d="M6.41797 15.9375L6.64297 16.0625L12.4805 5.9375C12.818 5.8625 13.0055 5.5375 13.193 5.2125C13.318 4.9875 13.818 4.125 14.0305 3C13.4374 3.52699 12.9349 4.14774 12.543 4.8375C12.3555 5.1625 12.168 5.4875 12.2555 5.825L6.41797 15.9375Z" fill="white"/>
<path d="M13.5703 15.9375L13.3453 16.0625L7.50781 5.9375C7.17031 5.8625 6.98281 5.5375 6.79531 5.2125C6.67031 4.9875 6.17031 4.125 5.95781 3C6.55084 3.52699 7.05336 4.14774 7.44531 4.8375C7.63281 5.1625 7.82031 5.4875 7.73281 5.825L13.5703 15.9375Z" fill="black" stroke="black" stroke-width="0.4"/>
<path d="M13.5703 15.9375L13.3453 16.0625L7.50781 5.9375C7.17031 5.8625 6.98281 5.5375 6.79531 5.2125C6.67031 4.9875 6.17031 4.125 5.95781 3C6.55084 3.52699 7.05336 4.14774 7.44531 4.8375C7.63281 5.1625 7.82031 5.4875 7.73281 5.825L13.5703 15.9375Z" fill="white"/>
<path d="M9.99219 4C9.24219 4 7.99219 6 7.61719 7H0V13H7.61719C7.99609 14 9.24609 16 9.99609 16C10.7461 16 11.9961 14 12.3711 13H20V7H12.3672C11.9922 6 10.7422 4 9.99219 4Z" fill="#BB0000"/>
<path d="M12.3672 13C12.7536 12.0455 12.9653 11.0294 12.9922 10C12.9653 8.97063 12.7536 7.95448 12.3672 7C11.9808 7.95448 11.7691 8.97063 11.7422 10C11.7691 11.0294 11.9808 12.0455 12.3672 13Z" fill="black"/>
<path d="M7.62109 13C7.23471 12.0455 7.02301 11.0294 6.99609 10C7.02301 8.97063 7.23471 7.95448 7.62109 7C8.00748 7.95448 8.21918 8.97063 8.24609 10C8.21918 11.0294 8.00748 12.0455 7.62109 13Z" fill="black"/>
<path d="M9.99219 10.75C10.2683 10.75 10.4922 10.4142 10.4922 10C10.4922 9.58579 10.2683 9.25 9.99219 9.25C9.71605 9.25 9.49219 9.58579 9.49219 10C9.49219 10.4142 9.71605 10.75 9.99219 10.75Z" fill="white"/>
<path d="M10.1172 10.7249C10.1172 10.7249 10.6172 11.7249 10.6172 13.3499C10.6172 14.9749 10.1172 15.9749 10.1172 15.9749V10.7249Z" fill="white"/>
<path d="M9.86719 9.2749C9.86719 9.2749 9.36719 8.2749 9.36719 6.6499C9.36719 5.0249 9.86719 4.0249 9.86719 4.0249V9.2749Z" fill="white"/>
<path d="M9.86719 10.7249C9.86719 10.7249 9.36719 11.7249 9.36719 13.3499C9.36719 14.9749 9.86719 15.9749 9.86719 15.9749V10.7249Z" fill="white"/>
<path d="M10.1172 9.2749C10.1172 9.2749 10.6172 8.2749 10.6172 6.6499C10.6172 5.0249 10.1172 4.0249 10.1172 4.0249V9.2749Z" fill="white"/>
</g>
<defs>
<clipPath id="clip0_943_18544">
<rect width="20" height="20" fill="white"/>
</clipPath>
</defs>
</svg>
