<svg width="14" height="14" viewBox="0 0 14 14" fill="none" xmlns="http://www.w3.org/2000/svg">
<path fill-rule="evenodd" clip-rule="evenodd" d="M9.91732 4.95833H10.5007C11.1423 4.95833 11.6673 5.48333 11.6673 6.125V11.9583C11.6673 12.6 11.1423 13.125 10.5007 13.125H3.50065C2.85898 13.125 2.33398 12.6 2.33398 11.9583V6.125C2.33398 5.48333 2.85898 4.95833 3.50065 4.95833H4.08398V3.79167C4.08398 2.18167 5.39065 0.875 7.00065 0.875C8.61065 0.875 9.91732 2.18167 9.91732 3.79167V4.95833ZM7.00065 2.04167C6.03232 2.04167 5.25065 2.82333 5.25065 3.79167V4.95833H8.75065V3.79167C8.75065 2.82333 7.96898 2.04167 7.00065 2.04167ZM3.50065 11.9583V6.125H10.5007V11.9583H3.50065ZM8.16732 9.04167C8.16732 9.68333 7.64232 10.2083 7.00065 10.2083C6.35898 10.2083 5.83398 9.68333 5.83398 9.04167C5.83398 8.4 6.35898 7.875 7.00065 7.875C7.64232 7.875 8.16732 8.4 8.16732 9.04167Z" fill="#A6A6A6"/>
</svg>
