<svg width="208" height="38" viewBox="0 0 208 38" fill="none" xmlns="http://www.w3.org/2000/svg">
<path d="M46.1294 13.3145H46.3294V13.1145V8.87589C46.3294 4.40206 42.5089 0.8 37.8112 0.8H9.31812C4.62045 0.8 0.8 4.40206 0.8 8.87589V29.1241C0.8 33.5979 4.62045 37.2 9.31812 37.2H37.8112C42.5089 37.2 46.3294 33.5979 46.3294 29.1241V24.8853V24.6853H46.1294H43.3771H43.1771V24.8853V29.1241C43.1771 31.924 40.767 34.1937 37.8112 34.1937H9.31812C6.33359 34.1937 3.95228 31.8968 3.95228 29.1241V8.87589C3.95228 6.07596 6.36239 3.80613 9.31812 3.80613H37.8112C40.7958 3.80613 43.1771 6.10322 43.1771 8.87589V13.1145V13.3145H43.3771H46.1294Z" fill="#1236F4" stroke="#1236F4" stroke-width="0.4"/>
<path d="M48.1558 16.6054H34.6048C34.1088 16.6054 33.6689 16.9823 33.6689 17.4962V20.5606C33.6689 21.0418 34.0743 21.4515 34.6048 21.4515H48.1558C48.6518 21.4515 49.0917 21.0744 49.0917 20.5606V17.4962C49.0917 16.9823 48.6518 16.6054 48.1558 16.6054ZM36.6312 20.4717C35.7682 20.4717 35.0866 19.8197 35.0866 19.0141C35.0866 18.2086 35.7682 17.5566 36.6312 17.5566C37.4942 17.5566 38.1758 18.2086 38.1758 19.0141C38.1758 19.8197 37.4942 20.4717 36.6312 20.4717Z" fill="#1236F4" stroke="#1236F4" stroke-width="0.177778"/>
<path d="M61.704 27V10.2H64.704L70.392 21.384L76.056 10.2H79.056V27H76.512V14.592L71.376 24.6H69.408L64.248 14.616V27H61.704ZM86.4056 27.288C85.3976 27.288 84.5656 27.12 83.9096 26.784C83.2536 26.448 82.7656 26.008 82.4456 25.464C82.1256 24.904 81.9656 24.296 81.9656 23.64C81.9656 22.488 82.4136 21.576 83.3096 20.904C84.2056 20.232 85.4856 19.896 87.1496 19.896H90.2696V19.68C90.2696 18.752 90.0136 18.056 89.5016 17.592C89.0056 17.128 88.3576 16.896 87.5576 16.896C86.8536 16.896 86.2376 17.072 85.7096 17.424C85.1976 17.76 84.8856 18.264 84.7736 18.936H82.2296C82.3096 18.072 82.5976 17.336 83.0936 16.728C83.6056 16.104 84.2456 15.632 85.0136 15.312C85.7976 14.976 86.6536 14.808 87.5816 14.808C89.2456 14.808 90.5336 15.248 91.4456 16.128C92.3576 16.992 92.8136 18.176 92.8136 19.68V27H90.6056L90.3896 24.96C90.0536 25.616 89.5656 26.168 88.9256 26.616C88.2856 27.064 87.4456 27.288 86.4056 27.288ZM86.9096 25.224C87.5976 25.224 88.1736 25.064 88.6376 24.744C89.1176 24.408 89.4856 23.968 89.7416 23.424C90.0136 22.88 90.1816 22.28 90.2456 21.624H87.4136C86.4056 21.624 85.6856 21.8 85.2536 22.152C84.8376 22.504 84.6296 22.944 84.6296 23.472C84.6296 24.016 84.8296 24.448 85.2296 24.768C85.6456 25.072 86.2056 25.224 86.9096 25.224ZM95.7799 27V15.096H98.0599L98.2759 17.352C98.6919 16.568 99.2679 15.952 100.004 15.504C100.756 15.04 101.66 14.808 102.716 14.808V17.472H102.02C101.316 17.472 100.684 17.592 100.124 17.832C99.5799 18.056 99.1399 18.448 98.8039 19.008C98.4839 19.552 98.3239 20.312 98.3239 21.288V27H95.7799ZM108.929 27.288C107.921 27.288 107.089 27.12 106.433 26.784C105.777 26.448 105.289 26.008 104.969 25.464C104.649 24.904 104.489 24.296 104.489 23.64C104.489 22.488 104.937 21.576 105.833 20.904C106.729 20.232 108.009 19.896 109.673 19.896H112.793V19.68C112.793 18.752 112.537 18.056 112.025 17.592C111.529 17.128 110.881 16.896 110.081 16.896C109.377 16.896 108.761 17.072 108.233 17.424C107.721 17.76 107.409 18.264 107.297 18.936H104.753C104.833 18.072 105.121 17.336 105.617 16.728C106.129 16.104 106.769 15.632 107.537 15.312C108.321 14.976 109.177 14.808 110.105 14.808C111.769 14.808 113.057 15.248 113.969 16.128C114.881 16.992 115.337 18.176 115.337 19.68V27H113.129L112.913 24.96C112.577 25.616 112.089 26.168 111.449 26.616C110.809 27.064 109.969 27.288 108.929 27.288ZM109.433 25.224C110.121 25.224 110.697 25.064 111.161 24.744C111.641 24.408 112.009 23.968 112.265 23.424C112.537 22.88 112.705 22.28 112.769 21.624H109.937C108.929 21.624 108.209 21.8 107.777 22.152C107.361 22.504 107.153 22.944 107.153 23.472C107.153 24.016 107.353 24.448 107.753 24.768C108.169 25.072 108.729 25.224 109.433 25.224ZM123.055 27.288C121.551 27.288 120.311 26.92 119.335 26.184C118.359 25.448 117.799 24.472 117.655 23.256H120.223C120.351 23.8 120.655 24.272 121.135 24.672C121.615 25.056 122.247 25.248 123.031 25.248C123.799 25.248 124.359 25.088 124.711 24.768C125.063 24.448 125.239 24.08 125.239 23.664C125.239 23.056 124.991 22.648 124.495 22.44C124.015 22.216 123.343 22.016 122.479 21.84C121.807 21.696 121.135 21.504 120.463 21.264C119.807 21.024 119.255 20.688 118.807 20.256C118.375 19.808 118.159 19.208 118.159 18.456C118.159 17.416 118.559 16.552 119.359 15.864C120.159 15.16 121.279 14.808 122.719 14.808C124.047 14.808 125.119 15.128 125.935 15.768C126.767 16.408 127.255 17.312 127.399 18.48H124.951C124.871 17.968 124.631 17.568 124.231 17.28C123.847 16.992 123.327 16.848 122.671 16.848C122.031 16.848 121.535 16.984 121.183 17.256C120.831 17.512 120.655 17.848 120.655 18.264C120.655 18.68 120.895 19.008 121.375 19.248C121.871 19.488 122.519 19.704 123.319 19.896C124.119 20.072 124.855 20.28 125.527 20.52C126.215 20.744 126.767 21.08 127.183 21.528C127.599 21.976 127.807 22.632 127.807 23.496C127.823 24.584 127.399 25.488 126.535 26.208C125.687 26.928 124.527 27.288 123.055 27.288ZM136.153 27.288C135.017 27.288 133.993 27.032 133.081 26.52C132.185 25.992 131.473 25.264 130.945 24.336C130.417 23.392 130.153 22.296 130.153 21.048C130.153 19.8 130.417 18.712 130.945 17.784C131.489 16.84 132.217 16.112 133.129 15.6C134.041 15.072 135.057 14.808 136.177 14.808C137.313 14.808 138.329 15.072 139.225 15.6C140.137 16.112 140.857 16.84 141.385 17.784C141.929 18.712 142.201 19.8 142.201 21.048C142.201 22.296 141.929 23.392 141.385 24.336C140.857 25.264 140.137 25.992 139.225 26.52C138.313 27.032 137.289 27.288 136.153 27.288ZM136.153 25.104C136.761 25.104 137.321 24.952 137.833 24.648C138.361 24.344 138.785 23.896 139.105 23.304C139.425 22.696 139.585 21.944 139.585 21.048C139.585 20.152 139.425 19.408 139.105 18.816C138.801 18.208 138.385 17.752 137.857 17.448C137.345 17.144 136.785 16.992 136.177 16.992C135.569 16.992 135.001 17.144 134.473 17.448C133.961 17.752 133.545 18.208 133.225 18.816C132.905 19.408 132.745 20.152 132.745 21.048C132.745 21.944 132.905 22.696 133.225 23.304C133.545 23.896 133.961 24.344 134.473 24.648C134.985 24.952 135.545 25.104 136.153 25.104ZM145.552 27V17.232H143.848V15.096H145.552V13.368C145.552 12.072 145.872 11.144 146.512 10.584C147.168 10.008 148.088 9.72 149.272 9.72H150.52V11.88H149.656C149.096 11.88 148.696 12 148.456 12.24C148.216 12.464 148.096 12.848 148.096 13.392V15.096H150.832V17.232H148.096V27H145.552ZM158.241 27C157.073 27 156.145 26.72 155.457 26.16C154.769 25.584 154.425 24.568 154.425 23.112V17.232H152.385V15.096H154.425L154.737 12.072H156.969V15.096H160.329V17.232H156.969V23.112C156.969 23.768 157.105 24.224 157.377 24.48C157.665 24.72 158.153 24.84 158.841 24.84H160.209V27H158.241ZM169.095 27V10.2H174.975C176.287 10.2 177.375 10.424 178.239 10.872C179.103 11.304 179.743 11.904 180.159 12.672C180.591 13.424 180.807 14.28 180.807 15.24C180.807 16.152 180.599 16.992 180.183 17.76C179.783 18.512 179.151 19.112 178.287 19.56C177.423 20.008 176.319 20.232 174.975 20.232H171.639V27H169.095ZM171.639 18.144H174.855C176.055 18.144 176.911 17.888 177.423 17.376C177.951 16.848 178.215 16.136 178.215 15.24C178.215 14.312 177.951 13.592 177.423 13.08C176.911 12.552 176.055 12.288 174.855 12.288H171.639V18.144ZM186.601 27.288C185.593 27.288 184.761 27.12 184.105 26.784C183.449 26.448 182.961 26.008 182.641 25.464C182.321 24.904 182.161 24.296 182.161 23.64C182.161 22.488 182.609 21.576 183.505 20.904C184.401 20.232 185.681 19.896 187.345 19.896H190.465V19.68C190.465 18.752 190.209 18.056 189.697 17.592C189.201 17.128 188.553 16.896 187.753 16.896C187.049 16.896 186.433 17.072 185.905 17.424C185.393 17.76 185.081 18.264 184.969 18.936H182.425C182.505 18.072 182.793 17.336 183.289 16.728C183.801 16.104 184.441 15.632 185.209 15.312C185.993 14.976 186.849 14.808 187.777 14.808C189.441 14.808 190.729 15.248 191.641 16.128C192.553 16.992 193.009 18.176 193.009 19.68V27H190.801L190.585 24.96C190.249 25.616 189.761 26.168 189.121 26.616C188.481 27.064 187.641 27.288 186.601 27.288ZM187.105 25.224C187.793 25.224 188.369 25.064 188.833 24.744C189.313 24.408 189.681 23.968 189.937 23.424C190.209 22.88 190.377 22.28 190.441 21.624H187.609C186.601 21.624 185.881 21.8 185.449 22.152C185.033 22.504 184.825 22.944 184.825 23.472C184.825 24.016 185.025 24.448 185.425 24.768C185.841 25.072 186.401 25.224 187.105 25.224ZM196.992 32.28L199.848 26.016H199.152L194.448 15.096H197.208L200.856 23.904L204.672 15.096H207.36L199.68 32.28H196.992Z" fill="white"/>
</svg>
