<svg width="166" height="34" viewBox="0 0 166 34" fill="none" xmlns="http://www.w3.org/2000/svg">
<path d="M41.1136 11.9684H41.3136V11.7684V8.00079C41.3136 4.01066 37.9067 0.8 33.72 0.8H8.39364C4.20694 0.8 0.8 4.01066 0.8 8.00079V25.9992C0.8 29.9893 4.20694 33.2 8.39364 33.2H33.72C37.9067 33.2 41.3136 29.9893 41.3136 25.9992V22.2314V22.0314H41.1136H38.6672H38.4672V22.2314V25.9992C38.4672 28.4746 36.3362 30.4833 33.72 30.4833H8.39364C5.75201 30.4833 3.64639 28.4505 3.64639 25.9992V8.00079C3.64639 5.52543 5.77745 3.51656 8.39364 3.51656H33.72C36.3616 3.51656 38.4672 5.54952 38.4672 8.00079V11.7684V11.9684H38.6672H41.1136Z" fill="white" stroke="white" stroke-width="0.4"/>
<path d="M42.9149 14.8618H30.8701C30.4245 14.8618 30.0283 15.2005 30.0283 15.6634V18.3874C30.0283 18.8208 30.3933 19.1891 30.8701 19.1891H42.9149C43.3605 19.1891 43.7567 18.8503 43.7567 18.3874V15.6634C43.7567 15.2005 43.3605 14.8618 42.9149 14.8618ZM32.6712 18.2985C31.9091 18.2985 31.3082 17.7228 31.3082 17.0127C31.3082 16.3026 31.9091 15.727 32.6712 15.727C33.4334 15.727 34.0343 16.3026 34.0343 17.0127C34.0343 17.7228 33.4334 18.2985 32.6712 18.2985Z" fill="white" stroke="#1236F4" stroke-width="0.177778"/>
<path d="M55.944 21V8.4H58.194L62.46 16.788L66.708 8.4H68.958V21H67.05V11.694L63.198 19.2H61.722L57.852 11.712V21H55.944ZM74.4702 21.216C73.7142 21.216 73.0902 21.09 72.5982 20.838C72.1062 20.586 71.7402 20.256 71.5002 19.848C71.2602 19.428 71.1402 18.972 71.1402 18.48C71.1402 17.616 71.4762 16.932 72.1482 16.428C72.8202 15.924 73.7802 15.672 75.0282 15.672H77.3682V15.51C77.3682 14.814 77.1762 14.292 76.7922 13.944C76.4202 13.596 75.9342 13.422 75.3342 13.422C74.8062 13.422 74.3442 13.554 73.9482 13.818C73.5642 14.07 73.3302 14.448 73.2462 14.952H71.3382C71.3982 14.304 71.6142 13.752 71.9862 13.296C72.3702 12.828 72.8502 12.474 73.4262 12.234C74.0142 11.982 74.6562 11.856 75.3522 11.856C76.6002 11.856 77.5662 12.186 78.2502 12.846C78.9342 13.494 79.2762 14.382 79.2762 15.51V21H77.6202L77.4582 19.47C77.2062 19.962 76.8402 20.376 76.3602 20.712C75.8802 21.048 75.2502 21.216 74.4702 21.216ZM74.8482 19.668C75.3642 19.668 75.7962 19.548 76.1442 19.308C76.5042 19.056 76.7802 18.726 76.9722 18.318C77.1762 17.91 77.3022 17.46 77.3502 16.968H75.2262C74.4702 16.968 73.9302 17.1 73.6062 17.364C73.2942 17.628 73.1382 17.958 73.1382 18.354C73.1382 18.762 73.2882 19.086 73.5882 19.326C73.9002 19.554 74.3202 19.668 74.8482 19.668ZM81.5009 21V12.072H83.2109L83.3729 13.764C83.6849 13.176 84.1169 12.714 84.6689 12.378C85.2329 12.03 85.9109 11.856 86.7029 11.856V13.854H86.1809C85.6529 13.854 85.1789 13.944 84.7589 14.124C84.3509 14.292 84.0209 14.586 83.7689 15.006C83.5289 15.414 83.4089 15.984 83.4089 16.716V21H81.5009ZM91.3628 21.216C90.6068 21.216 89.9828 21.09 89.4908 20.838C88.9988 20.586 88.6328 20.256 88.3928 19.848C88.1528 19.428 88.0328 18.972 88.0328 18.48C88.0328 17.616 88.3688 16.932 89.0408 16.428C89.7128 15.924 90.6728 15.672 91.9208 15.672H94.2608V15.51C94.2608 14.814 94.0688 14.292 93.6848 13.944C93.3128 13.596 92.8268 13.422 92.2268 13.422C91.6988 13.422 91.2368 13.554 90.8408 13.818C90.4568 14.07 90.2228 14.448 90.1388 14.952H88.2308C88.2908 14.304 88.5068 13.752 88.8788 13.296C89.2628 12.828 89.7428 12.474 90.3188 12.234C90.9068 11.982 91.5488 11.856 92.2448 11.856C93.4928 11.856 94.4588 12.186 95.1428 12.846C95.8268 13.494 96.1688 14.382 96.1688 15.51V21H94.5128L94.3508 19.47C94.0988 19.962 93.7328 20.376 93.2528 20.712C92.7728 21.048 92.1428 21.216 91.3628 21.216ZM91.7408 19.668C92.2568 19.668 92.6888 19.548 93.0368 19.308C93.3968 19.056 93.6728 18.726 93.8648 18.318C94.0688 17.91 94.1948 17.46 94.2428 16.968H92.1188C91.3628 16.968 90.8228 17.1 90.4988 17.364C90.1868 17.628 90.0308 17.958 90.0308 18.354C90.0308 18.762 90.1808 19.086 90.4808 19.326C90.7928 19.554 91.2128 19.668 91.7408 19.668ZM101.958 21.216C100.83 21.216 99.8995 20.94 99.1675 20.388C98.4355 19.836 98.0155 19.104 97.9075 18.192H99.8335C99.9295 18.6 100.158 18.954 100.518 19.254C100.878 19.542 101.352 19.686 101.939 19.686C102.516 19.686 102.936 19.566 103.2 19.326C103.464 19.086 103.596 18.81 103.596 18.498C103.596 18.042 103.41 17.736 103.038 17.58C102.678 17.412 102.174 17.262 101.526 17.13C101.022 17.022 100.518 16.878 100.014 16.698C99.5215 16.518 99.1075 16.266 98.7715 15.942C98.4475 15.606 98.2855 15.156 98.2855 14.592C98.2855 13.812 98.5855 13.164 99.1855 12.648C99.7855 12.12 100.626 11.856 101.706 11.856C102.702 11.856 103.506 12.096 104.118 12.576C104.742 13.056 105.108 13.734 105.216 14.61H103.38C103.32 14.226 103.14 13.926 102.84 13.71C102.552 13.494 102.162 13.386 101.67 13.386C101.19 13.386 100.818 13.488 100.554 13.692C100.29 13.884 100.158 14.136 100.158 14.448C100.158 14.76 100.338 15.006 100.698 15.186C101.07 15.366 101.556 15.528 102.156 15.672C102.756 15.804 103.308 15.96 103.812 16.14C104.328 16.308 104.742 16.56 105.054 16.896C105.366 17.232 105.522 17.724 105.522 18.372C105.534 19.188 105.216 19.866 104.568 20.406C103.932 20.946 103.062 21.216 101.958 21.216ZM111.78 21.216C110.928 21.216 110.16 21.024 109.476 20.64C108.804 20.244 108.27 19.698 107.874 19.002C107.478 18.294 107.28 17.472 107.28 16.536C107.28 15.6 107.478 14.784 107.874 14.088C108.282 13.38 108.828 12.834 109.512 12.45C110.196 12.054 110.958 11.856 111.798 11.856C112.65 11.856 113.412 12.054 114.084 12.45C114.768 12.834 115.308 13.38 115.704 14.088C116.112 14.784 116.316 15.6 116.316 16.536C116.316 17.472 116.112 18.294 115.704 19.002C115.308 19.698 114.768 20.244 114.084 20.64C113.4 21.024 112.632 21.216 111.78 21.216ZM111.78 19.578C112.236 19.578 112.656 19.464 113.04 19.236C113.436 19.008 113.754 18.672 113.994 18.228C114.234 17.772 114.354 17.208 114.354 16.536C114.354 15.864 114.234 15.306 113.994 14.862C113.766 14.406 113.454 14.064 113.058 13.836C112.674 13.608 112.254 13.494 111.798 13.494C111.342 13.494 110.916 13.608 110.52 13.836C110.136 14.064 109.824 14.406 109.584 14.862C109.344 15.306 109.224 15.864 109.224 16.536C109.224 17.208 109.344 17.772 109.584 18.228C109.824 18.672 110.136 19.008 110.52 19.236C110.904 19.464 111.324 19.578 111.78 19.578ZM118.83 21V13.674H117.552V12.072H118.83V10.776C118.83 9.804 119.07 9.108 119.55 8.688C120.042 8.256 120.732 8.04 121.62 8.04H122.556V9.66H121.908C121.488 9.66 121.188 9.75 121.008 9.93C120.828 10.098 120.738 10.386 120.738 10.794V12.072H122.79V13.674H120.738V21H118.83ZM128.346 21C127.47 21 126.774 20.79 126.258 20.37C125.742 19.938 125.484 19.176 125.484 18.084V13.674H123.954V12.072H125.484L125.718 9.804H127.392V12.072H129.912V13.674H127.392V18.084C127.392 18.576 127.494 18.918 127.698 19.11C127.914 19.29 128.28 19.38 128.796 19.38H129.822V21H128.346ZM136.487 21V8.4H140.897C141.881 8.4 142.697 8.568 143.345 8.904C143.993 9.228 144.473 9.678 144.785 10.254C145.109 10.818 145.271 11.46 145.271 12.18C145.271 12.864 145.115 13.494 144.803 14.07C144.503 14.634 144.029 15.084 143.381 15.42C142.733 15.756 141.905 15.924 140.897 15.924H138.395V21H136.487ZM138.395 14.358H140.807C141.707 14.358 142.349 14.166 142.733 13.782C143.129 13.386 143.327 12.852 143.327 12.18C143.327 11.484 143.129 10.944 142.733 10.56C142.349 10.164 141.707 9.966 140.807 9.966H138.395V14.358ZM149.617 21.216C148.861 21.216 148.237 21.09 147.745 20.838C147.253 20.586 146.887 20.256 146.647 19.848C146.407 19.428 146.287 18.972 146.287 18.48C146.287 17.616 146.623 16.932 147.295 16.428C147.967 15.924 148.927 15.672 150.175 15.672H152.515V15.51C152.515 14.814 152.323 14.292 151.939 13.944C151.567 13.596 151.081 13.422 150.481 13.422C149.953 13.422 149.491 13.554 149.095 13.818C148.711 14.07 148.477 14.448 148.393 14.952H146.485C146.545 14.304 146.761 13.752 147.133 13.296C147.517 12.828 147.997 12.474 148.573 12.234C149.161 11.982 149.803 11.856 150.499 11.856C151.747 11.856 152.713 12.186 153.397 12.846C154.081 13.494 154.423 14.382 154.423 15.51V21H152.767L152.605 19.47C152.353 19.962 151.987 20.376 151.507 20.712C151.027 21.048 150.397 21.216 149.617 21.216ZM149.995 19.668C150.511 19.668 150.943 19.548 151.291 19.308C151.651 19.056 151.927 18.726 152.119 18.318C152.323 17.91 152.449 17.46 152.497 16.968H150.373C149.617 16.968 149.077 17.1 148.753 17.364C148.441 17.628 148.285 17.958 148.285 18.354C148.285 18.762 148.435 19.086 148.735 19.326C149.047 19.554 149.467 19.668 149.995 19.668ZM157.41 24.96L159.552 20.262H159.03L155.502 12.072H157.572L160.308 18.678L163.17 12.072H165.186L159.426 24.96H157.41Z" fill="white"/>
</svg>
