<svg width="16" height="17" viewBox="0 0 16 17" fill="none" xmlns="http://www.w3.org/2000/svg">
<path d="M6.06065 6.49967C6.21739 6.05412 6.52675 5.67841 6.93395 5.4391C7.34116 5.19978 7.81991 5.1123 8.28544 5.19215C8.75096 5.272 9.1732 5.51402 9.47737 5.87536C9.78154 6.2367 9.94802 6.69402 9.94732 7.16634C9.94732 8.49967 7.94732 9.16634 7.94732 9.16634M8.00065 11.833H8.00732M14.6673 8.49967C14.6673 12.1816 11.6826 15.1663 8.00065 15.1663C4.31875 15.1663 1.33398 12.1816 1.33398 8.49967C1.33398 4.81778 4.31875 1.83301 8.00065 1.83301C11.6826 1.83301 14.6673 4.81778 14.6673 8.49967Z" stroke="#98A2B3" stroke-width="1.33333" stroke-linecap="round" stroke-linejoin="round"/>
</svg>
