<svg width="219" height="63" viewBox="0 0 219 63" fill="none" xmlns="http://www.w3.org/2000/svg">
<path d="M38.2321 22.251V19.7738C38.2321 17.2297 36.3136 15.1709 33.9428 15.1709H19.2502C16.8794 15.1709 14.9609 17.2297 14.9609 19.7738V31.6076C14.9609 34.1517 16.8794 36.2105 19.2502 36.2105H33.9428C36.3136 36.2105 38.2321 34.1517 38.2321 31.6076V29.1303H36.8128V31.6076C36.8128 33.3148 35.5181 34.6873 33.9428 34.6873H19.2502C17.6593 34.6873 16.3802 33.2981 16.3802 31.6076V19.7738C16.3802 18.0666 17.6749 16.694 19.2502 16.694H33.9428C35.5337 16.694 36.8128 18.0833 36.8128 19.7738V22.251H38.2321Z" fill="white"/>
<path d="M38.2321 22.251V19.7738C38.2321 17.2297 36.3136 15.1709 33.9428 15.1709H19.2502C16.8794 15.1709 14.9609 17.2297 14.9609 19.7738V31.6076C14.9609 34.1517 16.8794 36.2105 19.2502 36.2105H33.9428C36.3136 36.2105 38.2321 34.1517 38.2321 31.6076V29.1303H36.8128V31.6076C36.8128 33.3148 35.5181 34.6873 33.9428 34.6873H19.2502C17.6593 34.6873 16.3802 33.2981 16.3802 31.6076V19.7738C16.3802 18.0666 17.6749 16.694 19.2502 16.694H33.9428C35.5337 16.694 36.8128 18.0833 36.8128 19.7738V22.251H38.2321Z" stroke="white"/>
<path d="M38.9458 24.2334H31.5134C31.2645 24.2334 31.0488 24.4696 31.0488 24.7847V26.8917C31.0488 27.1871 31.248 27.4432 31.5134 27.4432H38.9458C39.1946 27.4432 39.4104 27.2068 39.4104 26.8917V24.7847C39.4104 24.4696 39.1946 24.2334 38.9458 24.2334ZM32.6248 26.8917C32.1271 26.8917 31.7289 26.4192 31.7289 25.8284C31.7289 25.2377 32.1271 24.7651 32.6248 24.7651C33.1225 24.7651 33.5208 25.2377 33.5208 25.8284C33.5208 26.4192 33.1225 26.8917 32.6248 26.8917Z" fill="white"/>
<path d="M38.9458 24.2334H31.5134C31.2645 24.2334 31.0488 24.4696 31.0488 24.7847V26.8917C31.0488 27.1871 31.248 27.4432 31.5134 27.4432H38.9458C39.1946 27.4432 39.4104 27.2068 39.4104 26.8917V24.7847C39.4104 24.4696 39.1946 24.2334 38.9458 24.2334ZM32.6248 26.8917C32.1271 26.8917 31.7289 26.4192 31.7289 25.8284C31.7289 25.2377 32.1271 24.7651 32.6248 24.7651C33.1225 24.7651 33.5208 25.2377 33.5208 25.8284C33.5208 26.4192 33.1225 26.8917 32.6248 26.8917Z" stroke="white"/>
<path d="M53.6911 18.29H57.4462L61.4122 27.9659H61.581L65.547 18.29H69.3021V32.6914H66.3487V23.3178H66.2291L62.5022 32.6211H60.491L56.7641 23.2827H56.6446V32.6914H53.6911V18.29ZM74.6364 32.8953C73.9473 32.8953 73.3332 32.7758 72.7941 32.5367C72.255 32.2929 71.8284 31.9343 71.5143 31.4608C71.2049 30.9826 71.0502 30.3873 71.0502 29.6747C71.0502 29.0746 71.1603 28.5707 71.3807 28.1628C71.601 27.755 71.901 27.4268 72.2807 27.1784C72.6605 26.9299 73.0918 26.7424 73.5746 26.6158C74.0622 26.4892 74.5732 26.4002 75.1076 26.3486C75.7358 26.283 76.2421 26.222 76.6265 26.1658C77.0109 26.1048 77.2898 26.0157 77.4633 25.8985C77.6367 25.7813 77.7235 25.6079 77.7235 25.3782V25.336C77.7235 24.8906 77.5828 24.5461 77.3016 24.3023C77.025 24.0585 76.6312 23.9366 76.1202 23.9366C75.5811 23.9366 75.1521 24.0562 74.8333 24.2953C74.5146 24.5297 74.3036 24.825 74.2005 25.1813L71.4299 24.9563C71.5705 24.2999 71.8471 23.7327 72.2596 23.2545C72.6722 22.7717 73.2043 22.4013 73.8559 22.1435C74.5122 21.8809 75.2717 21.7497 76.1343 21.7497C76.7343 21.7497 77.3086 21.82 77.8571 21.9606C78.4103 22.1013 78.9002 22.3193 79.3268 22.6146C79.7581 22.91 80.0979 23.2897 80.3464 23.7538C80.5949 24.2132 80.7191 24.7641 80.7191 25.4063V32.6914H77.8782V31.1936H77.7938C77.6203 31.5311 77.3883 31.8288 77.0976 32.0867C76.807 32.3398 76.4577 32.539 76.0499 32.6844C75.642 32.825 75.1709 32.8953 74.6364 32.8953ZM75.4943 30.8279C75.935 30.8279 76.3241 30.7412 76.6617 30.5678C76.9992 30.3896 77.2641 30.1505 77.4563 29.8505C77.6485 29.5505 77.7446 29.2106 77.7446 28.8309V27.6847C77.6508 27.7456 77.5219 27.8019 77.3578 27.8534C77.1984 27.9003 77.0179 27.9448 76.8164 27.987C76.6148 28.0245 76.4132 28.0597 76.2116 28.0925C76.01 28.1206 75.8272 28.1464 75.6631 28.1699C75.3115 28.2214 75.0045 28.3035 74.7419 28.416C74.4794 28.5285 74.2755 28.6808 74.1301 28.8731C73.9848 29.0606 73.9122 29.295 73.9122 29.5763C73.9122 29.9841 74.0598 30.2959 74.3552 30.5115C74.6552 30.7225 75.0349 30.8279 75.4943 30.8279ZM82.8451 32.6914V21.8903H85.7493V23.7749H85.8618C86.0587 23.1045 86.3892 22.5982 86.8533 22.256C87.3175 21.9091 87.8519 21.7356 88.4566 21.7356C88.6066 21.7356 88.7684 21.745 88.9418 21.7637C89.1153 21.7825 89.2676 21.8083 89.3989 21.8411V24.4992C89.2583 24.457 89.0637 24.4195 88.8153 24.3867C88.5668 24.3539 88.3394 24.3374 88.1332 24.3374C87.6925 24.3374 87.2987 24.4335 86.9518 24.6258C86.6096 24.8133 86.3377 25.0758 86.1361 25.4133C85.9392 25.7509 85.8407 26.14 85.8407 26.5806V32.6914H82.8451ZM93.5203 32.8953C92.8311 32.8953 92.217 32.7758 91.6779 32.5367C91.1388 32.2929 90.7122 31.9343 90.3981 31.4608C90.0887 30.9826 89.934 30.3873 89.934 29.6747C89.934 29.0746 90.0441 28.5707 90.2645 28.1628C90.4848 27.755 90.7848 27.4268 91.1646 27.1784C91.5443 26.9299 91.9756 26.7424 92.4584 26.6158C92.946 26.4892 93.457 26.4002 93.9914 26.3486C94.6196 26.283 95.1259 26.222 95.5103 26.1658C95.8947 26.1048 96.1737 26.0157 96.3471 25.8985C96.5206 25.7813 96.6073 25.6079 96.6073 25.3782V25.336C96.6073 24.8906 96.4667 24.5461 96.1854 24.3023C95.9088 24.0585 95.515 23.9366 95.004 23.9366C94.4649 23.9366 94.0359 24.0562 93.7172 24.2953C93.3984 24.5297 93.1874 24.825 93.0843 25.1813L90.3137 24.9563C90.4543 24.2999 90.7309 23.7327 91.1435 23.2545C91.556 22.7717 92.0881 22.4013 92.7397 22.1435C93.396 21.8809 94.1555 21.7497 95.0181 21.7497C95.6181 21.7497 96.1924 21.82 96.7409 21.9606C97.2941 22.1013 97.784 22.3193 98.2106 22.6146C98.6419 22.91 98.9818 23.2897 99.2302 23.7538C99.4787 24.2132 99.6029 24.7641 99.6029 25.4063V32.6914H96.762V31.1936H96.6776C96.5042 31.5311 96.2721 31.8288 95.9815 32.0867C95.6908 32.3398 95.3415 32.539 94.9337 32.6844C94.5258 32.825 94.0547 32.8953 93.5203 32.8953ZM94.3782 30.8279C94.8188 30.8279 95.2079 30.7412 95.5455 30.5678C95.883 30.3896 96.1479 30.1505 96.3401 29.8505C96.5323 29.5505 96.6284 29.2106 96.6284 28.8309V27.6847C96.5346 27.7456 96.4057 27.8019 96.2416 27.8534C96.0822 27.9003 95.9018 27.9448 95.7002 27.987C95.4986 28.0245 95.297 28.0597 95.0954 28.0925C94.8938 28.1206 94.711 28.1464 94.5469 28.1699C94.1953 28.2214 93.8883 28.3035 93.6257 28.416C93.3632 28.5285 93.1593 28.6808 93.014 28.8731C92.8686 29.0606 92.796 29.295 92.796 29.5763C92.796 29.9841 92.9436 30.2959 93.239 30.5115C93.539 30.7225 93.9187 30.8279 94.3782 30.8279ZM110.716 24.9703L107.973 25.1391C107.926 24.9047 107.826 24.6937 107.671 24.5062C107.516 24.314 107.312 24.1616 107.059 24.0491C106.811 23.9319 106.513 23.8733 106.166 23.8733C105.702 23.8733 105.311 23.9718 104.992 24.1687C104.673 24.3609 104.514 24.6187 104.514 24.9422C104.514 25.2 104.617 25.418 104.823 25.5962C105.029 25.7743 105.383 25.9173 105.885 26.0251L107.84 26.4189C108.89 26.6346 109.673 26.9815 110.188 27.4596C110.704 27.9378 110.962 28.566 110.962 29.3442C110.962 30.0521 110.753 30.6732 110.336 31.2077C109.924 31.7421 109.356 32.1593 108.634 32.4594C107.917 32.7547 107.09 32.9024 106.152 32.9024C104.722 32.9024 103.583 32.6047 102.735 32.0093C101.891 31.4092 101.396 30.5935 101.251 29.5622L104.197 29.4075C104.286 29.8435 104.502 30.1763 104.844 30.406C105.186 30.631 105.625 30.7436 106.159 30.7436C106.684 30.7436 107.106 30.6428 107.425 30.4412C107.748 30.2349 107.912 29.97 107.917 29.6466C107.912 29.3747 107.798 29.152 107.573 28.9785C107.347 28.8004 107.001 28.6644 106.532 28.5707L104.661 28.198C103.606 27.987 102.821 27.6214 102.306 27.101C101.795 26.5806 101.539 25.9173 101.539 25.111C101.539 24.4171 101.727 23.8194 102.102 23.3178C102.481 22.8162 103.013 22.4294 103.698 22.1575C104.387 21.8856 105.193 21.7497 106.117 21.7497C107.481 21.7497 108.555 22.038 109.338 22.6146C110.125 23.1912 110.585 23.9765 110.716 24.9703ZM117.53 32.9024C116.438 32.9024 115.493 32.6703 114.697 32.2062C113.904 31.7374 113.292 31.0858 112.861 30.2513C112.43 29.4122 112.214 28.4394 112.214 27.3331C112.214 26.2173 112.43 25.2422 112.861 24.4078C113.292 23.5686 113.904 22.917 114.697 22.4529C115.493 21.9841 116.438 21.7497 117.53 21.7497C118.623 21.7497 119.565 21.9841 120.357 22.4529C121.154 22.917 121.768 23.5686 122.2 24.4078C122.631 25.2422 122.847 26.2173 122.847 27.3331C122.847 28.4394 122.631 29.4122 122.2 30.2513C121.768 31.0858 121.154 31.7374 120.357 32.2062C119.565 32.6703 118.623 32.9024 117.53 32.9024ZM117.544 30.5818C118.041 30.5818 118.456 30.4412 118.789 30.1599C119.122 29.8739 119.373 29.4848 119.542 28.9926C119.715 28.5004 119.802 27.9401 119.802 27.312C119.802 26.6838 119.715 26.1236 119.542 25.6313C119.373 25.1391 119.122 24.75 118.789 24.464C118.456 24.1781 118.041 24.0351 117.544 24.0351C117.043 24.0351 116.621 24.1781 116.279 24.464C115.941 24.75 115.686 25.1391 115.512 25.6313C115.343 26.1236 115.259 26.6838 115.259 27.312C115.259 27.9401 115.343 28.5004 115.512 28.9926C115.686 29.4848 115.941 29.8739 116.279 30.1599C116.621 30.4412 117.043 30.5818 117.544 30.5818ZM130.405 21.8903V24.1406H123.738V21.8903H130.405ZM125.264 32.6914V21.1098C125.264 20.3269 125.417 19.6776 125.721 19.1619C126.031 18.6463 126.453 18.2595 126.987 18.0017C127.522 17.7438 128.129 17.6149 128.809 17.6149C129.268 17.6149 129.688 17.6501 130.067 17.7204C130.452 17.7907 130.738 17.854 130.925 17.9102L130.391 20.1605C130.274 20.123 130.128 20.0878 129.955 20.055C129.786 20.0222 129.612 20.0058 129.434 20.0058C128.994 20.0058 128.687 20.1089 128.513 20.3152C128.34 20.5168 128.253 20.8004 128.253 21.166V32.6914H125.264ZM137.782 21.8903V24.1406H131.277V21.8903H137.782ZM132.754 19.3026H135.75V29.3723C135.75 29.6489 135.792 29.8646 135.876 30.0193C135.961 30.1693 136.078 30.2748 136.228 30.3357C136.383 30.3966 136.561 30.4271 136.762 30.4271C136.903 30.4271 137.044 30.4154 137.184 30.392C137.325 30.3638 137.433 30.3427 137.508 30.3287L137.979 32.5578C137.829 32.6047 137.618 32.6586 137.346 32.7195C137.074 32.7852 136.744 32.825 136.354 32.8391C135.632 32.8672 135 32.7711 134.456 32.5508C133.917 32.3304 133.497 31.9882 133.197 31.5241C132.897 31.06 132.749 30.474 132.754 29.7661V19.3026ZM143.977 32.6914V18.29H149.658C150.751 18.29 151.681 18.4986 152.45 18.9158C153.219 19.3284 153.805 19.9026 154.208 20.6386C154.616 21.37 154.82 22.2138 154.82 23.1701C154.82 24.1265 154.614 24.9703 154.201 25.7016C153.788 26.433 153.191 27.0026 152.408 27.4104C151.63 27.8183 150.687 28.0222 149.581 28.0222H145.96V25.5821H149.089C149.675 25.5821 150.158 25.4813 150.537 25.2797C150.922 25.0735 151.208 24.7898 151.395 24.4289C151.587 24.0632 151.684 23.6436 151.684 23.1701C151.684 22.692 151.587 22.2747 151.395 21.9185C151.208 21.5575 150.922 21.2785 150.537 21.0817C150.153 20.8801 149.665 20.7793 149.075 20.7793H147.021V32.6914H143.977ZM159.333 32.8953C158.644 32.8953 158.03 32.7758 157.491 32.5367C156.952 32.2929 156.525 31.9343 156.211 31.4608C155.902 30.9826 155.747 30.3873 155.747 29.6747C155.747 29.0746 155.857 28.5707 156.077 28.1628C156.298 27.755 156.598 27.4268 156.978 27.1784C157.357 26.9299 157.789 26.7424 158.271 26.6158C158.759 26.4892 159.27 26.4002 159.804 26.3486C160.433 26.283 160.939 26.222 161.323 26.1658C161.708 26.1048 161.987 26.0157 162.16 25.8985C162.334 25.7813 162.42 25.6079 162.42 25.3782V25.336C162.42 24.8906 162.28 24.5461 161.998 24.3023C161.722 24.0585 161.328 23.9366 160.817 23.9366C160.278 23.9366 159.849 24.0562 159.53 24.2953C159.211 24.5297 159 24.825 158.897 25.1813L156.127 24.9563C156.267 24.2999 156.544 23.7327 156.956 23.2545C157.369 22.7717 157.901 22.4013 158.553 22.1435C159.209 21.8809 159.968 21.7497 160.831 21.7497C161.431 21.7497 162.005 21.82 162.554 21.9606C163.107 22.1013 163.597 22.3193 164.024 22.6146C164.455 22.91 164.795 23.2897 165.043 23.7538C165.292 24.2132 165.416 24.7641 165.416 25.4063V32.6914H162.575V31.1936H162.491C162.317 31.5311 162.085 31.8288 161.794 32.0867C161.504 32.3398 161.155 32.539 160.747 32.6844C160.339 32.825 159.868 32.8953 159.333 32.8953ZM160.191 30.8279C160.632 30.8279 161.021 30.7412 161.358 30.5678C161.696 30.3896 161.961 30.1505 162.153 29.8505C162.345 29.5505 162.441 29.2106 162.441 28.8309V27.6847C162.348 27.7456 162.219 27.8019 162.055 27.8534C161.895 27.9003 161.715 27.9448 161.513 27.987C161.312 28.0245 161.11 28.0597 160.908 28.0925C160.707 28.1206 160.524 28.1464 160.36 28.1699C160.008 28.2214 159.701 28.3035 159.439 28.416C159.176 28.5285 158.972 28.6808 158.827 28.8731C158.682 29.0606 158.609 29.295 158.609 29.5763C158.609 29.9841 158.757 30.2959 159.052 30.5115C159.352 30.7225 159.732 30.8279 160.191 30.8279ZM169.005 36.7418C168.625 36.7418 168.269 36.7113 167.936 36.6504C167.608 36.5941 167.336 36.5215 167.12 36.4324L167.795 34.1962C168.147 34.3041 168.463 34.3627 168.744 34.372C169.03 34.3814 169.276 34.3158 169.483 34.1751C169.694 34.0345 169.865 33.7954 169.996 33.4579L170.172 33.0008L166.297 21.8903H169.448L171.684 29.8224H171.796L174.054 21.8903H177.225L173.027 33.8587C172.825 34.44 172.551 34.9463 172.204 35.3776C171.862 35.8136 171.428 36.1488 170.903 36.3832C170.378 36.6223 169.745 36.7418 169.005 36.7418Z" fill="white"/>
</svg>
