<svg width="28" height="28" viewBox="0 0 28 28" fill="none" xmlns="http://www.w3.org/2000/svg">
<path fill-rule="evenodd" clip-rule="evenodd" d="M3.69336 19.1619C3.69336 19.4081 3.79115 19.6442 3.96523 19.8182C4.1393 19.9923 4.3754 20.0901 4.62158 20.0901C4.86776 20.0901 5.10385 19.9923 5.27793 19.8182C5.452 19.6442 5.5498 19.4081 5.5498 19.1619V8.64209C5.5498 8.39591 5.452 8.15981 5.27793 7.98574C5.10385 7.81166 4.86776 7.71387 4.62158 7.71387C4.3754 7.71387 4.1393 7.81166 3.96523 7.98574C3.79115 8.15981 3.69336 8.39591 3.69336 8.64209V19.1619ZM13.3976 9.22377C13.5714 9.39781 13.669 9.63373 13.669 9.87971C13.669 10.1257 13.5714 10.3616 13.3976 10.5356L10.9594 12.9738H22.5671C22.8133 12.9738 23.0494 13.0716 23.2235 13.2456C23.3975 13.4197 23.4953 13.6558 23.4953 13.902C23.4953 14.1482 23.3975 14.3843 23.2235 14.5583C23.0494 14.7324 22.8133 14.8302 22.5671 14.8302H10.9594L13.3976 17.2683C13.4888 17.3533 13.5619 17.4558 13.6126 17.5696C13.6634 17.6835 13.6907 17.8064 13.6929 17.931C13.6951 18.0557 13.6721 18.1795 13.6254 18.2951C13.5788 18.4106 13.5093 18.5156 13.4211 18.6038C13.333 18.6919 13.228 18.7614 13.1124 18.8081C12.9968 18.8548 12.873 18.8777 12.7484 18.8755C12.6238 18.8733 12.5009 18.846 12.387 18.7953C12.2731 18.7445 12.1707 18.6714 12.0857 18.5802L8.06217 14.5579L7.40623 13.902L8.06217 13.246L12.0844 9.22377C12.1706 9.13751 12.273 9.06909 12.3857 9.0224C12.4983 8.97572 12.6191 8.95169 12.741 8.95169C12.863 8.95169 12.9837 8.97572 13.0964 9.0224C13.209 9.06909 13.3114 9.13751 13.3976 9.22377Z" fill="white"/>
</svg>
